<?xml version="1.0" encoding="UTF-8"?>
<svg xmlns="http://www.w3.org/2000/svg" width="159.4" height="158.91" viewBox="0 0 159.4 158.91">
  <defs>
    <linearGradient id="a" x1="771.08" x2="782.3" y1="-394.32" y2="-381.49" gradientTransform="matrix(.4 0 0 -.39 -186.33 -29.28)" gradientUnits="userSpaceOnUse">
      <stop offset="0" stop-color="#f90"/>
      <stop offset="1" stop-color="#fc6"/>
    </linearGradient>
    <linearGradient id="b" x1="650.94" x2="742.06" y1="-320.1" y2="-320.1" gradientTransform="matrix(.4 0 0 -.39 -185.53 -29.98)" gradientUnits="userSpaceOnUse">
      <stop offset="0" stop-color="#fff"/>
      <stop offset="1" stop-color="#9bcbff" stop-opacity=".68"/>
    </linearGradient>
  </defs>
  <path fill="#396" d="M56.07 32.11A52.81 52.81 0 0 0 41 43.25a47.83 47.83 0 0 0 6.35-.25 57.34 57.34 0 0 1 8.72-10.89zm5-2.17a57.4 57.4 0 0 1 13.31.92 48.52 48.52 0 0 0 4.2-4.29 52.78 52.78 0 0 0-17.52 3.37zm-2.77 4.88A54.08 54.08 0 0 0 52 42.2a47.48 47.48 0 0 0 8.34-2.59zm3.25-1.4l2.06 4.74a47.87 47.87 0 0 0 7.1-4.33 53.77 53.77 0 0 0-9.16-.41zm21.52-6.75a51.24 51.24 0 0 1-4.54 5.13 57.27 57.27 0 0 1 21.91 11.32 76.51 76.51 0 0 0 6.44-9.12 53.51 53.51 0 0 0-23.81-7.33zm-45 20A53.4 53.4 0 0 0 27.6 69.25a76 76 0 0 0 11.18 1.32 57.25 57.25 0 0 1 6.44-23.86 53.14 53.14 0 0 1-7.14-.05zm37.31-12A52 52 0 0 1 65 41.4l9.49 21.89a75.78 75.78 0 0 0 23.62-17.5 53.51 53.51 0 0 0-22.72-11.14zM49.45 46.26a53.42 53.42 0 0 0-7.15 24.38 75.72 75.72 0 0 0 29-5.91l-9.51-21.87a51.8 51.8 0 0 1-12.34 3.4zM109.86 36a80.84 80.84 0 0 1-6.77 9.51A56.28 56.28 0 0 1 116 63.94q1 2.22 1.73 4.49a106.39 106.39 0 0 0 9.85-11.73A52.82 52.82 0 0 0 109.86 36zM27 72.74a52.71 52.71 0 0 0 3.49 27.05 103.85 103.85 0 0 0 15.29.57q-1.28-2.36-2.4-4.92a56.12 56.12 0 0 1-4.64-21.33A79.08 79.08 0 0 1 27 72.74zm73.75-24.61a79.22 79.22 0 0 1-24.83 18.41l10.45 24.08a105 105 0 0 0 28.54-19.39 53.14 53.14 0 0 0-14.14-23.1zm-58.52 26a53.21 53.21 0 0 0 7.5 26 105.43 105.43 0 0 0 33.38-8.09L72.68 68a79.06 79.06 0 0 1-30.43 6.17zm86.97-13.71a108.34 108.34 0 0 1-10.32 11.87 56.27 56.27 0 0 1 0 28.24 133 133 0 0 0 13-10.77 52.83 52.83 0 0 0-2.68-29.34zm-97 43.1a52.85 52.85 0 0 0 20 21.62 130.47 130.47 0 0 0 16.44-2.37 56.37 56.37 0 0 1-20.74-19 109.25 109.25 0 0 1-15.7-.25zm83.72-28.4a108.38 108.38 0 0 1-28.14 18.76l8.56 19.73a131.35 131.35 0 0 0 17.88-9.87 52.92 52.92 0 0 0 1.7-28.6zm-64 28.4a52.94 52.94 0 0 0 22.1 18A131.68 131.68 0 0 0 93.1 115l-8.56-19.69a108.68 108.68 0 0 1-32.6 8.21zM130.26 96a134.38 134.38 0 0 1-13.14 10.08 57.43 57.43 0 0 1-13.84 21.25A53 53 0 0 0 130.26 96zm-72.43 32.11a53 53 0 0 0 40.53 1.33 57.48 57.48 0 0 1-24.55-4.24 134.81 134.81 0 0 1-16 2.91zm54.06-18.72a134.72 134.72 0 0 1-14.14 7.48l3.33 7.68a53.62 53.62 0 0 0 10.81-15.16zm-32.18 14.23A53.84 53.84 0 0 0 97.84 126l-3.33-7.68a137.34 137.34 0 0 1-14.8 5.33z"/>
  <path fill="#900" d="M79.7 0a79.64 79.64 0 0 0-65.61 34.46l15.41 8.9a61.95 61.95 0 0 1 100.4 0l15.4-8.9A79.63 79.63 0 0 0 79.7 0z"/>
  <path fill="#069" d="M5.7 50.08a79.72 79.72 0 0 0 65.14 108.83V141a62 62 0 0 1-49.6-82zm147.99 0l-15.54 9a62 62 0 0 1-49.6 82v17.87a79.7 79.7 0 0 0 65.14-108.87z"/>
  <path d="M93.42 74.62c-12.76 0-23.11 10.07-23.11 22.48s10.35 22.48 23.11 22.48a23.42 23.42 0 0 0 14.5-5l2.66 2.61-.21.22a2.45 2.45 0 0 0 0 3.53l19.5 19a2.64 2.64 0 0 0 3.64 0l2.27-2.23a2.46 2.46 0 0 0 0-3.54l-19.54-19a2.57 2.57 0 0 0-3.6 0l-.24.25-2.59-2.51a22.19 22.19 0 0 0 6.71-15.84c0-12.38-10.35-22.45-23.1-22.45zm0 2.41a17.77 17.77 0 1 1-18.25 17.74A18 18 0 0 1 93.42 77z" opacity=".2" style="isolation:isolate"/>
  <path d="M106.38 107.25a19.05 19.05 0 0 1-1.92 1.66l9.51 9.26 1.82-1.77z"/>
  <path fill="#930" d="M110.35 115.09a2.45 2.45 0 0 0 0 3.53l19.53 19a2.61 2.61 0 0 0 3.63 0l2.27-2.21a2.43 2.43 0 0 0 0-3.53l-19.52-19a2.62 2.62 0 0 0-3.64 0z"/>
  <path fill="url(#a)" d="M115.49 113.67a1.32 1.32 0 0 0-1.82 0l-2.29 2.18a1.23 1.23 0 0 0 0 1.77l19.3 19.23a1.31 1.31 0 0 0 1.81 0l2.3-2.18a1.22 1.22 0 0 0 0-1.77z"/>
  <path fill="#333" d="M93.42 72.29c-12.76 0-23.11 10.07-23.11 22.48s10.35 22.48 23.11 22.48 23.1-10.07 23.1-22.48-10.35-22.48-23.1-22.48zm0 4.74a17.77 17.77 0 1 1-18.25 17.74A18 18 0 0 1 93.42 77z"/>
  <path fill="#ccc" d="M93.42 73.88C81.59 73.88 72 83.25 72 94.77s9.63 20.89 21.46 20.89 21.46-9.38 21.46-20.89-9.67-20.89-21.5-20.89zm0 3.15a17.77 17.77 0 1 1-18.25 17.74A18 18 0 0 1 93.42 77z"/>
  <path fill="#fff" d="M93.42 73.88C81.59 73.88 72 83.25 72 94.77a20.86 20.86 0 0 0 12.3 18.87 20.83 20.83 0 0 1-11.72-18.55c0-11.52 9.63-20.89 21.47-20.89a21.83 21.83 0 0 1 9.15 2 21.79 21.79 0 0 0-9.78-2.32z"/>
  <path fill="#036" d="M93.42 75.75c-10.77 0-19.54 8.54-19.54 19s8.77 19 19.54 19 19.54-8.53 19.54-19-8.77-19-19.54-19zm0 1.28a17.77 17.77 0 1 1-18.25 17.74A18 18 0 0 1 93.42 77z"/>
  <path fill="url(#b)" d="M75.17 94.78A18.25 18.25 0 1 0 93.41 77a18 18 0 0 0-18.24 17.78z"/>
  <path fill="#fff" d="M76 94.78a16.55 16.55 0 0 0 1.55 7 5.55 5.55 0 0 0 1.83-1c8.84-5.83 16.17-14.61 25.16-19.09a17.71 17.71 0 0 0-11.1-3.88A17.23 17.23 0 0 0 76 94.78z"/>
</svg>
